PathFileType	4	(X/Y/Z)	SUBJ62_1_walk_RCNL2025.trc
DataRate	CameraRate	NumFrames	NumMarkers	Units	OrigDataRate	OrigDataStartFrame	OrigNumFrames
100	100	10	25	mm	100	119	315
Frame#	Time	R_Shoulder			L_Shoulder			C7			J_Notch			R_Elbow			L_Elbow			R_Wrist			L_Wrist			R_Asis			L_Asis			Sacral			Thoracic			Sternum			R_Thigh_Lateral			R_Knee_Lateral			R_Shank_Lateral			R_Ankle_Lateral			R_Heel			R_Toe			L_Thigh_Lateral			L_Knee_Lateral			L_Shank_Lateral			L_Ankle_Lateral			L_Heel			L_Toe		
		X1	Y1	Z1	X2	Y2	Z2	X3	Y3	Z3	X4	Y4	Z4	X5	Y5	Z5	X6	Y6	Z6	X7	Y7	Z7	X8	Y8	Z8	X9	Y9	Z9	X10	Y10	Z10	X11	Y11	Z11	X12	Y12	Z12	X13	Y13	Z13	X14	Y14	Z14	X15	Y15	Z15	X16	Y16	Z16	X17	Y17	Z17	X18	Y18	Z18	X19	Y19	Z19	X20	Y20	Z20	X21	Y21	Z21	X22	Y22	Z22	X23	Y23	Z23	X24	Y24	Z24	X25	Y25	Z25
119	1.18000000	108.640129	1259.907593	-13.731503	90.459076	1273.762695	-355.583893	27.213261	1330.130615	-187.108521	159.021408	1247.279053	-193.226547	-12.471343	979.362488	37.319908	177.432938	993.180908	-438.864044	6.804751	758.398956	35.817796	364.213745	878.169037	-410.948334	167.731186	852.323120	-55.305218	157.094955	846.529419	-317.591888	-11.738151	852.320496	-177.226562	-29.767279	1132.586914	-188.898941	184.492630	1047.742065	-192.203506	191.337158	466.426575	10.445012	229.429474	420.496155	-61.145378	272.885742	249.617661	-24.901569	329.716309	64.682396	-98.690186	291.630646	36.768486	-146.979218	435.983215	74.598206	-98.400810	-18.166878	474.503265	-346.245270	-41.814083	415.998901	-293.775970	-120.771996	236.153900	-320.252472	-213.481201	97.215981	-248.438248	-265.279785	128.511642	-209.251358	-125.477402	38.467556	-230.765289
120	1.19000000	120.743118	1259.803467	-11.941740	102.259598	1274.020996	-353.737122	39.021458	1330.245728	-185.084045	170.994720	1247.721558	-191.379929	1.689182	978.375305	39.018311	187.117905	992.532104	-436.940796	22.542741	757.543671	37.713767	372.184113	874.669647	-409.711090	180.679596	852.722168	-54.588703	169.873306	846.533325	-316.806671	1.030220	852.408142	-176.343338	-17.554680	1132.619507	-187.279205	197.039169	1048.230713	-190.761185	203.215683	466.849030	11.600548	240.356934	420.263123	-60.151939	279.670868	248.437073	-24.768278	332.798859	62.987888	-98.759201	294.029419	37.015938	-147.164185	439.362823	69.025497	-98.173370	-4.747394	474.302094	-345.848053	-27.781483	415.468628	-293.912567	-111.709396	238.020920	-320.602783	-208.475891	101.847122	-248.562286	-259.000122	135.513931	-209.693970	-124.477020	38.239437	-230.370193
121	1.20000000	132.913712	1259.894775	-10.212862	114.207199	1274.568726	-351.946411	50.944618	1330.670776	-183.080688	183.031235	1248.420776	-189.520142	16.261114	977.501099	40.765987	196.536362	992.025940	-434.992065	38.855264	756.835114	39.736735	379.523773	870.836212	-408.611252	193.500092	853.497925	-53.794739	182.745712	846.733887	-315.867584	13.723526	852.757568	-175.527985	-5.324814	1132.974609	-185.767014	209.554337	1048.957642	-189.325089	214.975739	467.663025	12.941884	251.133652	420.563385	-59.032928	286.467133	247.825638	-24.398211	335.602997	61.761311	-98.738411	295.957489	37.630280	-147.097733	442.389801	63.900536	-98.310883	9.705777	473.950745	-345.528198	-12.717976	414.799194	-294.192139	-101.817551	240.052139	-321.047333	-202.531036	106.854088	-248.747208	-251.541443	142.894684	-210.028030	-123.292976	37.997025	-229.960876
122	1.21000000	145.110672	1260.218140	-8.578375	126.315552	1275.428589	-350.241638	62.946625	1331.400879	-181.149368	195.103775	1249.371338	-187.674454	31.255985	976.778137	42.544178	205.673523	991.692749	-433.028900	55.732421	756.316620	41.865667	386.188126	866.718353	-407.633850	206.121567	854.701660	-52.890152	195.655823	847.172546	-314.719147	26.298779	853.374512	-174.766571	6.893311	1133.643555	-184.390320	221.989807	1049.914917	-187.907257	226.456665	468.857727	14.393908	261.835785	421.399109	-57.830189	293.532562	247.797745	-23.756521	338.147308	60.958908	-98.652283	297.508301	38.476776	-146.817322	445.059631	59.422619	-98.790855	25.283361	473.423615	-345.340088	3.410697	413.987305	-294.642517	-90.994270	242.253296	-321.622559	-195.545593	112.182625	-249.054550	-242.738571	150.579773	-210.291489	-121.801559	37.794876	-229.609512
123	1.22000000	157.293015	1260.795898	-7.058602	138.584213	1276.591553	-348.630554	74.976799	1332.391357	-179.331070	207.184906	1250.541138	-185.870117	46.665756	976.236389	44.336391	214.522614	991.549927	-431.068481	73.162573	756.025513	44.075057	392.141342	862.358887	-406.758209	218.493973	856.336853	-51.842384	208.552078	847.872986	-313.315552	38.726898	854.234802	-174.037064	19.075714	1134.588867	-183.149841	234.313004	1051.070679	-186.517120	237.693176	470.369507	15.904628	272.527710	422.635223	-56.596539	301.017456	248.235031	-22.879965	340.415161	60.496895	-98.537407	298.752350	39.419231	-146.398972	447.343201	55.695721	-99.506462	42.024849	472.698242	-345.336334	20.590801	413.029449	-295.272339	-79.145821	244.600067	-322.351166	-187.459946	117.725845	-249.521423	-232.476166	158.470596	-210.540329	-119.859703	37.711952	-229.375961
124	1.23000000	169.428253	1261.627075	-5.660049	150.984406	1278.016479	-347.101959	86.983612	1333.573730	-177.648209	219.249054	1251.879517	-184.133514	62.456806	975.890503	46.135208	223.085831	991.594727	-429.127808	91.132362	755.984985	46.335109	397.364975	857.796326	-405.963974	230.584366	858.342163	-50.627327	221.392410	848.833313	-311.631317	50.986980	855.289185	-173.314240	31.201635	1135.758057	-182.022263	246.509003	1052.377075	-185.160950	248.921768	472.110535	17.462627	283.189972	424.038849	-55.381447	308.875336	248.928131	-21.876019	342.392303	60.285645	-98.429359	299.744202	40.348831	-145.926514	449.232239	52.741199	-100.330658	59.907955	471.757324	-345.549988	38.759026	411.925415	-296.060394	-66.190704	247.034760	-323.225189	-178.237091	123.390121	-250.160736	-220.721756	166.470261	-210.834061	-117.313744	37.869595	-229.315811
125	1.24000000	181.497742	1262.686279	-4.378377	163.455292	1279.639038	-345.637268	98.930771	1334.878784	-176.102264	231.275482	1253.330688	-182.489304	78.571335	975.736206	47.942940	231.371109	991.803040	-427.219727	109.629463	756.201233	48.612995	401.863159	853.069183	-405.235809	242.372162	860.598083	-49.233112	234.140579	850.025085	-309.672577	63.061878	856.477173	-172.577072	43.251457	1137.096313	-180.969788	258.574554	1053.781738	-183.841522	260.422913	473.986053	19.078201	293.684204	425.367004	-54.222404	316.866821	249.650772	-20.881952	344.076050	60.245106	-98.353485	300.522308	41.191601	-145.468079	450.745148	50.517059	-101.168510	78.850037	470.601746	-345.980682	57.813858	410.686829	-296.957367	-52.070580	249.479492	-324.199432	-167.861191	129.147644	-250.966965	-207.541122	174.504807	-211.214554	-113.989838	38.443718	-229.498154
126	1.25000000	193.497314	1263.928711	-3.203658	175.914536	1281.385132	-344.223450	110.804092	1336.254517	-174.678940	243.248825	1254.844727	-180.958694	94.934380	975.752441	49.765217	239.386459	992.134155	-425.352844	128.646973	756.667267	50.874952	405.663086	848.220886	-404.564087	253.848892	862.949890	-47.661999	246.753326	851.397949	-307.487701	74.936150	857.740601	-171.812775	55.206665	1138.554077	-179.951370	270.507812	1055.236450	-182.559250	272.298889	475.891022	20.743069	303.779236	426.447510	-53.145824	324.647369	250.227234	-20.012985	345.476013	60.311287	-98.320961	301.115723	41.907669	-145.068741	451.920166	48.936214	-101.961403	98.715027	469.266388	-346.590790	77.632553	409.346832	-297.897766	-36.777027	251.870850	-325.204193	-156.354568	135.036331	-251.923904	-193.084961	182.521454	-211.686203	-109.662468	39.651722	-230.012497
127	1.26000000	205.433594	1265.298584	-2.125664	188.277267	1283.181885	-342.860199	122.605003	1337.671509	-173.358047	255.155579	1256.380493	-179.556824	111.459259	975.910156	51.604336	247.135925	992.537598	-423.531708	148.180595	757.371155	53.088394	408.809097	843.301849	-403.943619	265.020660	865.238647	-45.932278	259.171021	852.888062	-305.168243	86.595383	859.032288	-171.014633	67.050507	1140.091797	-178.931671	282.300446	1056.701050	-181.313889	284.345978	477.709686	22.405035	313.215576	427.215820	-52.170929	331.867798	250.572647	-19.328341	346.611694	60.436337	-98.330574	301.552826	42.486046	-144.752472	452.806152	47.882923	-102.668236	119.318947	467.827118	-347.310394	98.084946	407.966522	-298.812988	-20.377068	254.200836	-326.168793	-143.768768	141.120071	-253.005600	-177.549713	190.464417	-212.206726	-104.018738	41.702217	-230.962128
128	1.27000000	217.317139	1266.738647	-1.136705	200.474167	1284.964966	-341.559784	134.338562	1339.117676	-172.122421	266.980682	1257.902100	-178.290680	128.058945	976.179749	53.456806	254.619171	992.960938	-421.753754	168.216660	758.301422	55.223764	411.353333	838.367493	-403.372971	275.909760	867.331116	-44.079906	271.327240	854.430481	-302.830627	98.028297	860.318604	-170.177231	78.767288	1141.681519	-177.885986	293.936890	1058.143677	-180.106537	296.099487	479.335846	23.979841	321.773682	427.701019	-51.309917	338.243896	250.695007	-18.827463	347.509308	60.583954	-98.374359	301.864288	42.937115	-144.526047	453.454041	47.229507	-103.260796	140.433945	466.395691	-348.048859	119.040298	406.638580	-299.640076	-3.012326	256.538361	-327.038818	-130.143799	147.436172	-254.170959	-161.129105	198.243881	-212.694489	-96.652695	44.723450	-232.451691
